<svg xmlns="http://www.w3.org/2000/svg" width="1200" height="700">
<rect x="0" y="0" width="100%" height="100%" fill="white"/>
<text x="600.0" y="34" text-anchor="middle" font-size="24" font-family="Arial">train: Consecutive -0 Run Length Distribution</text>
<line x1="100" y1="600" x2="1170" y2="600" stroke="black"/>
<line x1="100" y1="70" x2="100" y2="600" stroke="black"/>
<rect x="100.00" y="600.00" width="70.33" height="0.00" fill="#4e79a7"/>
<rect x="171.33" y="600.00" width="70.33" height="0.00" fill="#4e79a7"/>
<rect x="242.67" y="70.00" width="70.33" height="530.00" fill="#4e79a7"/>
<rect x="314.00" y="518.28" width="70.33" height="81.72" fill="#4e79a7"/>
<rect x="385.33" y="583.31" width="70.33" height="16.69" fill="#4e79a7"/>
<rect x="456.67" y="595.70" width="70.33" height="4.30" fill="#4e79a7"/>
<rect x="528.00" y="598.77" width="70.33" height="1.23" fill="#4e79a7"/>
<rect x="599.33" y="599.57" width="70.33" height="0.43" fill="#4e79a7"/>
<rect x="670.67" y="599.87" width="70.33" height="0.13" fill="#4e79a7"/>
<rect x="742.00" y="599.96" width="70.33" height="0.04" fill="#4e79a7"/>
<rect x="813.33" y="599.97" width="70.33" height="0.03" fill="#4e79a7"/>
<rect x="884.67" y="599.99" width="70.33" height="0.01" fill="#4e79a7"/>
<rect x="956.00" y="599.99" width="70.33" height="0.01" fill="#4e79a7"/>
<rect x="1027.33" y="600.00" width="70.33" height="0.00" fill="#4e79a7"/>
<rect x="1098.67" y="600.00" width="70.33" height="0.00" fill="#4e79a7"/>
<line x1="95" y1="600.00" x2="100" y2="600.00" stroke="black"/>
<text x="90" y="604.00" text-anchor="end" font-size="12" font-family="Arial">0</text>
<line x1="95" y1="494.00" x2="100" y2="494.00" stroke="black"/>
<text x="90" y="498.00" text-anchor="end" font-size="12" font-family="Arial">81519</text>
<line x1="95" y1="388.00" x2="100" y2="388.00" stroke="black"/>
<text x="90" y="392.00" text-anchor="end" font-size="12" font-family="Arial">163038</text>
<line x1="95" y1="282.00" x2="100" y2="282.00" stroke="black"/>
<text x="90" y="286.00" text-anchor="end" font-size="12" font-family="Arial">244558</text>
<line x1="95" y1="176.00" x2="100" y2="176.00" stroke="black"/>
<text x="90" y="180.00" text-anchor="end" font-size="12" font-family="Arial">326077</text>
<line x1="95" y1="70.00" x2="100" y2="70.00" stroke="black"/>
<text x="90" y="74.00" text-anchor="end" font-size="12" font-family="Arial">407596</text>
<line x1="100.00" y1="600" x2="100.00" y2="605" stroke="black"/>
<text x="100.00" y="620" text-anchor="middle" font-size="10" font-family="Arial">0</text>
<line x1="171.33" y1="600" x2="171.33" y2="605" stroke="black"/>
<text x="171.33" y="620" text-anchor="middle" font-size="10" font-family="Arial">1</text>
<line x1="242.67" y1="600" x2="242.67" y2="605" stroke="black"/>
<text x="242.67" y="620" text-anchor="middle" font-size="10" font-family="Arial">2</text>
<line x1="314.00" y1="600" x2="314.00" y2="605" stroke="black"/>
<text x="314.00" y="620" text-anchor="middle" font-size="10" font-family="Arial">3</text>
<line x1="385.33" y1="600" x2="385.33" y2="605" stroke="black"/>
<text x="385.33" y="620" text-anchor="middle" font-size="10" font-family="Arial">4</text>
<line x1="456.67" y1="600" x2="456.67" y2="605" stroke="black"/>
<text x="456.67" y="620" text-anchor="middle" font-size="10" font-family="Arial">5</text>
<line x1="528.00" y1="600" x2="528.00" y2="605" stroke="black"/>
<text x="528.00" y="620" text-anchor="middle" font-size="10" font-family="Arial">6</text>
<line x1="599.33" y1="600" x2="599.33" y2="605" stroke="black"/>
<text x="599.33" y="620" text-anchor="middle" font-size="10" font-family="Arial">7</text>
<line x1="670.67" y1="600" x2="670.67" y2="605" stroke="black"/>
<text x="670.67" y="620" text-anchor="middle" font-size="10" font-family="Arial">8</text>
<line x1="742.00" y1="600" x2="742.00" y2="605" stroke="black"/>
<text x="742.00" y="620" text-anchor="middle" font-size="10" font-family="Arial">9</text>
<line x1="813.33" y1="600" x2="813.33" y2="605" stroke="black"/>
<text x="813.33" y="620" text-anchor="middle" font-size="10" font-family="Arial">10</text>
<line x1="884.67" y1="600" x2="884.67" y2="605" stroke="black"/>
<text x="884.67" y="620" text-anchor="middle" font-size="10" font-family="Arial">11</text>
<line x1="956.00" y1="600" x2="956.00" y2="605" stroke="black"/>
<text x="956.00" y="620" text-anchor="middle" font-size="10" font-family="Arial">12</text>
<line x1="1027.33" y1="600" x2="1027.33" y2="605" stroke="black"/>
<text x="1027.33" y="620" text-anchor="middle" font-size="10" font-family="Arial">13</text>
<line x1="1098.67" y1="600" x2="1098.67" y2="605" stroke="black"/>
<text x="1098.67" y="620" text-anchor="middle" font-size="10" font-family="Arial">14</text>
<line x1="1170.00" y1="600" x2="1170.00" y2="605" stroke="black"/>
<text x="1170.00" y="620" text-anchor="middle" font-size="10" font-family="Arial">15</text>
<text x="600.0" y="674" text-anchor="middle" font-size="16" font-family="Arial">run length (0->0 once == length 2)</text>
<text x="24" y="350.0" text-anchor="middle" font-size="16" font-family="Arial" transform="rotate(-90 24 350.0)">frequency</text>
</svg>